<?xml version="1.0" standalone="no"?>
<!DOCTYPE svg PUBLIC "-//W3C//DTD SVG 20010904//EN"
 "http://www.w3.org/TR/2001/REC-SVG-20010904/DTD/svg10.dtd">
<svg version="1.0" xmlns="http://www.w3.org/2000/svg"
 width="32.000000pt" height="32.000000pt" viewBox="0 0 32.000000 32.000000"
 preserveAspectRatio="xMidYMid meet">
<metadata>
Created by potrace 1.10, written by Peter Selinger 2001-2011
</metadata>
<g transform="translate(0.000000,32.000000) scale(0.100000,-0.100000)"
fill="#000000" stroke="none">
<path d="M132 298 c-7 -7 -12 -18 -12 -26 0 -23 22 -92 30 -92 9 0 30 63 30
92 0 14 -7 29 -16 32 -20 8 -18 8 -32 -6z"/>
<path d="M27 243 c-14 -14 -6 -43 16 -57 12 -7 39 -16 60 -19 35 -5 37 -4 26
11 -48 63 -82 85 -102 65z"/>
<path d="M201 213 c-17 -21 -31 -40 -31 -44 0 -10 78 7 95 21 22 18 15 54 -11
58 -15 2 -31 -9 -53 -35z"/>
<path d="M72 140 c-41 -10 -55 -22 -50 -46 6 -36 48 -29 85 13 l34 38 -7 -30
c-4 -16 -8 -46 -8 -65 -1 -31 2 -35 24 -35 21 0 25 5 28 35 3 42 -30 100 -55
99 -10 -1 -33 -5 -51 -9z"/>
<path d="M170 143 c0 -19 68 -75 86 -71 26 4 30 44 7 56 -28 15 -93 26 -93 15z"/>
</g>
</svg>
